<svg xmlns="http://www.w3.org/2000/svg" version="1.1" xmlns:xlink="http://www.w3.org/1999/xlink" width="1000" height="1000"><g clip-path="url(#SvgjsClipPath1064)"><rect width="1000" height="1000" fill="#ffffff"></rect><g transform="matrix(29.166666666666668,0,0,29.166666666666668,164.58333333333331,150)"><svg xmlns="http://www.w3.org/2000/svg" version="1.1" xmlns:xlink="http://www.w3.org/1999/xlink" width="23" height="24"><svg width="23" height="24" viewBox="0 0 23 24" fill="none" xmlns="http://www.w3.org/2000/svg">
<path d="M9.27899 7.35515C9.43661 7.57237 9.51909 7.83328 9.51435 8.09969C9.51062 8.26512 9.46871 8.42759 9.39177 8.57493C9.36969 8.61646 9.34462 8.65641 9.31674 8.69446C9.17846 8.89271 8.56847 9.83839 9.1564 10.3842C9.16172 10.3895 9.16857 10.3931 9.17603 10.3944C9.18349 10.3958 9.1912 10.3949 9.19813 10.3919C9.20506 10.3889 9.21088 10.3839 9.21482 10.3775C9.21875 10.3711 9.22061 10.3638 9.22014 10.3563C9.20333 10.1251 9.23128 9.89288 9.30252 9.67181C9.30252 9.67181 9.43688 9.25226 9.85809 8.78278C10.0511 8.57172 10.1666 8.30359 10.1861 8.02096C10.1861 8.00512 10.1861 7.9888 10.1861 7.97296C10.1936 7.62588 10.0942 7.28463 9.90075 6.99368C9.77522 6.80166 9.58987 6.52324 9.44668 6.32643C9.32734 6.16179 9.26967 5.96189 9.2834 5.76046C9.29217 5.59664 9.32521 5.43494 9.38147 5.28042C9.38865 5.26213 9.38953 5.24204 9.38396 5.22322C9.37839 5.2044 9.36668 5.18788 9.35062 5.17618C9.33455 5.16448 9.31502 5.15825 9.29501 5.15844C9.27499 5.15862 9.25559 5.16522 9.23976 5.17721C9.09554 5.28826 8.97984 5.43079 8.90191 5.59341C8.83016 5.74686 8.79019 5.9127 8.7843 6.08136C8.77841 6.25003 8.80671 6.41816 8.86758 6.57605C8.97059 6.8517 9.10882 7.11348 9.27899 7.35515Z" fill="#2E2413"></path>
<path d="M11.6229 7.6907C11.5775 7.96052 11.4764 8.21845 11.3257 8.44868C11.3257 8.44868 10.4039 9.89599 11.2222 10.6055C9.84926 10.6093 8.87788 10.6535 8.87788 10.6535C7.56079 10.6871 6.08287 11.0049 5.68029 11.0961C5.6791 11.0964 5.67785 11.0965 5.67662 11.0964C5.67538 11.0963 5.67418 11.0959 5.67309 11.0954C5.672 11.0948 5.67103 11.094 5.67025 11.093C5.66947 11.0921 5.66888 11.091 5.66853 11.0898C5.66817 11.0887 5.66806 11.0875 5.66818 11.0862C5.66831 11.085 5.66868 11.0839 5.66928 11.0828C5.66987 11.0817 5.67067 11.0808 5.67163 11.08C5.6726 11.0792 5.67371 11.0787 5.6749 11.0783C6.61883 10.6876 7.64611 10.4912 7.90257 10.4456C7.90649 10.4456 7.90257 10.4399 7.90257 10.4404C6.5948 10.5426 5.41649 10.7044 5.03401 10.7596C5.02912 10.7606 5.02403 10.7597 5.01974 10.7572C5.01545 10.7547 5.01225 10.7508 5.01079 10.7461C5.00932 10.7414 5.00968 10.7364 5.0118 10.7319C5.01391 10.7275 5.01764 10.724 5.02224 10.7221C5.74502 10.4058 7.25628 10.1874 7.58923 10.1423C7.59104 10.1418 7.59264 10.1408 7.59379 10.1394C7.59494 10.1379 7.59556 10.1362 7.59556 10.1343C7.59556 10.1325 7.59494 10.1307 7.59379 10.1293C7.59264 10.1279 7.59104 10.1269 7.58923 10.1264C7.29944 10.099 6.95423 10.0918 6.67571 10.0923C4.82659 10.3136 3.63553 10.6626 3.63553 11.0553C3.63553 11.7245 7.09986 12.2669 11.3733 12.2669C15.6467 12.2669 19.1115 11.7245 19.1115 11.0553C19.1115 10.7591 18.4334 10.4879 17.307 10.2776C16.1424 10.1735 15.3334 10.2085 15.0416 10.2296C15.0394 10.2301 15.0375 10.2313 15.0361 10.233C15.0347 10.2347 15.034 10.2368 15.034 10.239C15.034 10.2412 15.0347 10.2433 15.0361 10.245C15.0375 10.2467 15.0394 10.2479 15.0416 10.2483C15.95 10.3194 16.8463 10.4984 17.7106 10.7812C17.7151 10.7829 17.7188 10.7862 17.7211 10.7904C17.7234 10.7946 17.724 10.7995 17.7228 10.8041C17.7217 10.8088 17.7189 10.8128 17.7149 10.8156C17.711 10.8183 17.7061 10.8196 17.7013 10.8191C17.4115 10.7817 17.0148 10.7562 16.8721 10.7476C16.8705 10.7476 16.869 10.7482 16.8679 10.7493C16.8668 10.7503 16.8662 10.7518 16.8662 10.7533C16.8662 10.7549 16.8668 10.7563 16.8679 10.7574C16.869 10.7585 16.8705 10.7591 16.8721 10.7591C17.1584 10.8388 17.3771 10.9142 17.5144 10.965C17.519 10.9662 17.5229 10.9692 17.5252 10.9732C17.5276 10.9772 17.5282 10.9819 17.5269 10.9864C17.5257 10.9909 17.5227 10.9946 17.5186 10.9969C17.5145 10.9992 17.5097 10.9999 17.5051 10.9986C15.6756 10.6823 13.2704 10.6088 11.466 10.6074C11.3669 10.3766 11.3237 10.1266 11.3397 9.87678C11.3557 9.62696 11.4304 9.38415 11.5581 9.16729C11.7109 8.9017 11.8804 8.64566 12.0656 8.40067C12.2425 8.12273 12.3455 7.80588 12.3653 7.479C12.3946 7.06469 12.2806 6.65278 12.0416 6.30963C11.9063 6.11329 11.7131 5.84783 11.4664 5.5478C11.4458 5.52284 11.4253 5.4998 11.4042 5.47436C11.2929 5.34331 10.7294 4.59157 11.4233 3.4942C11.4311 3.4821 11.4346 3.46781 11.4332 3.45356C11.4318 3.43931 11.4257 3.4259 11.4157 3.41543C11.4058 3.40496 11.3925 3.39802 11.3781 3.39568C11.3637 3.39334 11.3489 3.39575 11.336 3.40251C11.0129 3.57293 10.4338 4.02656 10.4455 5.08265C10.4455 5.08265 10.4602 5.67693 11.2007 6.43443C11.3643 6.59839 11.4875 6.79685 11.5607 7.01461C11.6338 7.23237 11.6551 7.46364 11.6229 7.6907Z" fill="#2E2413"></path>
<path d="M13.6583 8.33923C13.6338 8.3777 13.6068 8.41458 13.5774 8.44964C13.4303 8.62821 12.7796 9.48508 13.1935 10.2099C13.1993 10.2193 13.2081 10.2267 13.2185 10.2309C13.2289 10.2351 13.2404 10.2359 13.2513 10.2333C13.2622 10.2307 13.272 10.2247 13.2792 10.2163C13.2865 10.2079 13.2908 10.1974 13.2915 10.1864C13.3008 9.95072 13.3563 9.51724 13.6161 9.19562C13.6499 9.15557 13.6862 9.11772 13.725 9.08233C13.945 8.87542 14.1281 8.634 14.2668 8.36803C14.3907 8.12303 14.4535 7.85281 14.4502 7.57948C14.4469 7.30615 14.3775 7.03747 14.2477 6.79542C14.1435 6.60185 14.0278 6.41447 13.901 6.23426C13.6884 5.85652 13.6356 5.41218 13.7539 4.99672C13.7603 4.97652 13.7598 4.95482 13.7523 4.93497C13.7448 4.91513 13.7308 4.89826 13.7126 4.88699C13.6943 4.87571 13.6727 4.87066 13.6512 4.87262C13.6297 4.87459 13.6094 4.88345 13.5936 4.89783C13.4827 4.99609 13.3895 5.11197 13.318 5.24058C13.2191 5.42168 13.164 5.62262 13.157 5.82788C13.1501 6.03314 13.1914 6.23722 13.2778 6.42435C13.3582 6.60091 13.4568 6.76899 13.572 6.92599C13.7451 7.16201 13.8337 7.44736 13.8241 7.73774C13.8211 7.94865 13.7641 8.15546 13.6583 8.33923Z" fill="#2E2413"></path>
<path d="M10.726 9.18073C10.4514 9.18458 10.1803 9.19178 9.91301 9.2009C9.7659 9.3089 9.62959 9.45916 9.66783 9.63293C10.0143 9.61885 10.3689 9.60941 10.7314 9.60461C10.7544 9.46406 10.7526 9.32068 10.726 9.18073Z" fill="#2E2413"></path>
<path d="M11.691 9.60077C12.0598 9.60365 12.4215 9.61117 12.7762 9.62333C12.853 9.49363 12.8848 9.34307 12.8669 9.19418C12.5217 9.18394 12.1704 9.17801 11.8131 9.17641C11.7317 9.30346 11.6893 9.45078 11.691 9.60077Z" fill="#2E2413"></path>
<path d="M21.8516 13.1415C21.9056 13.1166 21.9595 13.0935 22.012 13.0633C23.2447 12.3984 22.975 11.4672 22.975 11.4672C22.6886 10.4524 21.6795 10.2791 21.6795 10.2791C21.4745 6.42099 19.061 3.89791 19.061 3.89791C16.1591 0.841987 13.1371 0.774782 12.5305 0.794944C12.3751 0.330746 11.973 0 11.5008 0C11.0286 0 10.6275 0.330746 10.4711 0.794944C9.86841 0.774782 6.84245 0.839107 3.93859 3.89791C3.93859 3.89791 1.52508 6.42099 1.3206 10.2791C1.3206 10.2791 0.311459 10.4524 0.0250938 11.4672C0.0250938 11.4672 -0.24509 12.3984 0.987654 13.0633C1.04012 13.0916 1.09406 13.1166 1.148 13.1415C1.31129 13.2159 1.86391 13.5227 1.95904 14.2936C1.89971 14.3805 1.83743 14.4698 1.77025 14.562C1.77025 14.562 -0.0705247 17.1518 1.77025 20.0219C1.77025 20.0219 4.20779 24.0005 11.4988 24C18.7899 23.9995 21.2274 20.0219 21.2274 20.0219C23.0682 17.1518 21.2274 14.562 21.2274 14.562C21.1602 14.4698 21.0979 14.3805 21.0386 14.2936C21.1357 13.5227 21.6883 13.2159 21.8516 13.1415ZM11.0394 1.33259C11.0434 1.23984 11.0723 1.14976 11.1232 1.07145C11.2188 0.922154 11.44 0.699896 11.8906 0.776222C11.8944 0.777304 11.8977 0.779548 11.9 0.78262C11.9024 0.785692 11.9036 0.789426 11.9036 0.793263C11.9036 0.797101 11.9024 0.800835 11.9 0.803907C11.8977 0.806979 11.8944 0.809223 11.8906 0.810305C11.7509 0.850148 11.4493 0.959597 11.3287 1.18858C11.3098 1.22129 11.2983 1.25752 11.2947 1.29491C11.2912 1.3323 11.2957 1.37 11.3081 1.40555C11.319 1.43539 11.3361 1.46274 11.3582 1.48592C11.3802 1.50911 11.4069 1.52766 11.4366 1.54044C11.4728 1.55589 11.5121 1.56362 11.5516 1.56313C11.5912 1.56263 11.6302 1.55392 11.666 1.53756C11.7235 1.51188 11.7793 1.48287 11.8332 1.45068C11.8433 1.44484 11.855 1.44231 11.8666 1.44347C11.8782 1.44462 11.8891 1.4494 11.8977 1.45709C11.9063 1.46478 11.9122 1.47498 11.9145 1.48618C11.9167 1.49739 11.9152 1.509 11.9102 1.51932C11.8777 1.58975 11.8296 1.65217 11.7692 1.70201C11.7089 1.75184 11.638 1.78784 11.5616 1.80734C11.5013 1.82185 11.4384 1.82178 11.3781 1.80714C11.3179 1.79251 11.2622 1.76374 11.2159 1.72334C11.1587 1.67545 11.1131 1.61563 11.0826 1.54827C11.052 1.4809 11.0373 1.4077 11.0394 1.33403V1.33259ZM4.43973 4.69478C4.43973 4.69478 6.5757 1.89903 10.4617 1.60573C10.6064 2.09201 11.0183 2.44292 11.5037 2.44292C11.9892 2.44292 12.4006 2.09201 12.5457 1.60573C16.4288 1.89999 18.5618 4.69478 18.5618 4.69478C20.5723 7.04024 20.9126 10.292 20.9479 10.6981C20.9502 10.7254 20.9428 10.7525 20.9268 10.7749C20.7514 11.0144 20.5288 11.2171 20.2722 11.3712C20.2918 11.2279 20.3018 11.0836 20.3021 10.9391C20.3021 10.123 17.5615 9.43323 13.8417 9.23258C13.7682 9.31466 13.701 9.4486 13.702 9.66461C16.9991 9.85663 19.3959 10.4327 19.3959 11.1182C19.3959 11.9578 15.7825 12.6385 11.3248 12.6385C6.86697 12.6385 3.25553 11.9587 3.25553 11.1191C3.25553 10.45 5.54939 9.88159 8.73668 9.67901C8.73396 9.53837 8.74281 9.39775 8.76316 9.2585C5.24636 9.48508 2.698 10.1528 2.698 10.9415C2.69835 11.086 2.70834 11.2303 2.72791 11.3735C2.47132 11.2195 2.24875 11.0168 2.07329 10.7773C2.05713 10.755 2.04966 10.7278 2.05221 10.7005C2.08604 10.292 2.42929 7.04024 4.43973 4.69478ZM1.30883 12.4416C1.30883 12.4416 0.0412754 11.7312 1.16173 11.0894C1.17048 11.0846 1.18041 11.0823 1.19041 11.0828C1.2004 11.0832 1.21009 11.0863 1.2184 11.0917C1.22672 11.0972 1.23333 11.1048 1.23752 11.1137C1.24171 11.1226 1.24331 11.1324 1.24215 11.1422C1.20905 11.3569 1.19152 11.5736 1.18968 11.7907C1.18747 11.8812 1.21853 11.9696 1.2772 12.0396C1.33586 12.1096 1.41825 12.1567 1.50939 12.1723C1.60615 12.187 1.70496 12.1644 1.78505 12.1092C1.86515 12.0541 1.9203 11.9707 1.93894 11.8766L1.97081 11.7144C1.97104 11.7134 1.97154 11.7125 1.97225 11.7117C1.97296 11.711 1.97386 11.7104 1.97485 11.7101C1.97585 11.7098 1.97691 11.7098 1.97792 11.7101C1.97893 11.7103 1.97986 11.7108 1.98062 11.7115C2.01886 11.7557 2.21844 11.9592 2.88531 12.2799C2.87011 12.4388 2.79558 12.8405 2.444 13.4987C2.36028 13.2548 2.20404 13.041 1.99533 12.8847C1.78004 12.7178 1.55034 12.5696 1.30883 12.4416ZM3.88073 19.1694C2.90983 18.8357 2.51167 18.566 2.14586 18.3663C2.1184 18.3514 2.13459 18.3183 2.16352 18.3303L2.53618 18.4892C2.56266 18.5007 2.6014 18.5199 2.63425 18.5372C2.69555 18.5684 2.75831 18.5976 2.82157 18.625C3.39381 18.8732 3.4855 18.8991 3.89691 19.1305C3.90158 19.133 3.90515 19.137 3.90693 19.1419C3.90872 19.1468 3.9086 19.1522 3.9066 19.157C3.90459 19.1618 3.90085 19.1658 3.89607 19.168C3.8913 19.1703 3.88584 19.1708 3.88073 19.1694ZM6.00248 14.7962L7.43774 15.0439C7.43883 15.0443 7.43979 15.0449 7.44047 15.0458C7.44116 15.0467 7.44152 15.0478 7.44152 15.049C7.44152 15.0501 7.44116 15.0512 7.44047 15.0521C7.43979 15.053 7.43883 15.0537 7.43774 15.054L4.70697 14.9489C4.70564 14.9492 4.70447 14.95 4.70363 14.9511C4.7028 14.9522 4.70235 14.9535 4.70235 14.9549C4.70235 14.9562 4.7028 14.9576 4.70363 14.9586C4.70447 14.9597 4.70564 14.9605 4.70697 14.9609L6.00346 15.3579C6.00971 15.3599 6.0161 15.3615 6.02258 15.3627L7.07782 15.5753C7.08003 15.5753 7.08215 15.5762 7.08371 15.5777C7.08528 15.5792 7.08615 15.5813 7.08615 15.5835C7.08615 15.5857 7.08528 15.5877 7.08371 15.5893C7.08215 15.5908 7.08003 15.5916 7.07782 15.5916L5.6455 15.5556L4.43041 15.464C4.42898 15.464 4.42761 15.4645 4.4266 15.4655C4.42559 15.4665 4.42502 15.4678 4.42502 15.4692C4.42502 15.4706 4.42559 15.472 4.4266 15.473C4.42761 15.474 4.42898 15.4745 4.43041 15.4745L5.63619 15.8941C5.6439 15.8966 5.65176 15.8987 5.65972 15.9003L6.78312 16.1221C6.78494 16.1221 6.78668 16.1228 6.78797 16.1241C6.78926 16.1253 6.78998 16.127 6.78998 16.1288C6.78998 16.1306 6.78926 16.1323 6.78797 16.1336C6.78668 16.1348 6.78494 16.1355 6.78312 16.1355H5.3714C5.36078 16.1363 5.35013 16.1363 5.33952 16.1355L4.07834 15.9622C4.07717 15.9622 4.07605 15.9627 4.07522 15.9635C4.07439 15.9643 4.07393 15.9654 4.07393 15.9666C4.07393 15.9677 4.07439 15.9688 4.07522 15.9696C4.07605 15.9704 4.07717 15.9709 4.07834 15.9709L5.95001 16.6799C5.95151 16.6807 5.9527 16.682 5.95339 16.6835C5.95409 16.685 5.95426 16.6867 5.95387 16.6884C5.95348 16.69 5.95256 16.6915 5.95124 16.6925C5.94992 16.6936 5.94829 16.6942 5.94658 16.6943L3.90966 16.5181C3.90862 16.5181 3.90762 16.5185 3.90688 16.5192C3.90615 16.52 3.90574 16.5209 3.90574 16.522C3.90574 16.523 3.90615 16.524 3.90688 16.5247C3.90762 16.5254 3.90862 16.5258 3.90966 16.5258L5.23361 17.0476C5.2429 17.0513 5.2524 17.0545 5.26205 17.0572L5.91765 17.2334C5.91934 17.2334 5.92096 17.234 5.92215 17.2352C5.92335 17.2364 5.92402 17.238 5.92402 17.2396C5.92402 17.2413 5.92335 17.2429 5.92215 17.244C5.92096 17.2452 5.91934 17.2459 5.91765 17.2459L3.66203 17.0318C3.66105 17.0321 3.6602 17.0327 3.65959 17.0335C3.65898 17.0343 3.65866 17.0353 3.65866 17.0363C3.65866 17.0373 3.65898 17.0383 3.65959 17.0391C3.6602 17.04 3.66105 17.0406 3.66203 17.0409L4.66578 17.5046L5.31157 17.7374C5.31299 17.738 5.31415 17.739 5.31485 17.7403C5.31555 17.7417 5.31573 17.7432 5.31538 17.7447C5.31502 17.7461 5.31414 17.7474 5.31291 17.7483C5.31167 17.7491 5.31015 17.7495 5.30863 17.7494L3.51149 17.5214C3.50561 17.5214 3.50267 17.5291 3.50806 17.5315L5.0561 18.2995C5.05749 18.3003 5.05856 18.3015 5.05912 18.303C5.05968 18.3045 5.0597 18.3061 5.05918 18.3076C5.05865 18.3091 5.05762 18.3103 5.05625 18.3111C5.05488 18.3119 5.05327 18.3123 5.05169 18.312L3.42127 18.0302C3.41919 18.0295 3.41688 18.0296 3.41486 18.0305C3.41284 18.0314 3.41126 18.033 3.41048 18.035C3.4097 18.0371 3.40978 18.0393 3.4107 18.0413C3.41162 18.0433 3.4133 18.0448 3.41538 18.0456L4.5986 18.7604C4.59967 18.7611 4.60048 18.7621 4.6009 18.7633C4.60133 18.7645 4.60135 18.7657 4.60096 18.7669C4.60057 18.7681 4.5998 18.7692 4.59875 18.7699C4.59771 18.7706 4.59645 18.771 4.59517 18.7709L4.04401 18.7028C3.99194 18.6966 3.94106 18.683 3.89299 18.6625L1.85999 17.8032C1.85912 17.8029 1.85837 17.8023 1.85784 17.8016C1.85731 17.8009 1.85703 17.8 1.85703 17.7991C1.85703 17.7982 1.85731 17.7973 1.85784 17.7966C1.85837 17.7959 1.85912 17.7953 1.85999 17.795L2.96083 17.9664C2.96258 17.9674 2.96468 17.9677 2.96666 17.9672C2.96864 17.9667 2.97033 17.9655 2.97137 17.9638C2.97241 17.962 2.97271 17.96 2.97221 17.958C2.9717 17.9561 2.97043 17.9545 2.96867 17.9534L2.59454 17.6352C2.58565 17.6274 2.57576 17.6208 2.56511 17.6155L1.75456 17.2007C1.75384 17.2002 1.75332 17.1994 1.75308 17.1985C1.75283 17.1976 1.75288 17.1967 1.7532 17.1959C1.75353 17.195 1.75412 17.1943 1.75489 17.1938C1.75566 17.1933 1.75658 17.193 1.75751 17.1931L2.92405 17.447C2.92565 17.4473 2.92732 17.4471 2.92879 17.4465C2.93026 17.4458 2.93146 17.4446 2.93219 17.4432C2.93292 17.4417 2.93315 17.4401 2.93283 17.4386C2.93251 17.437 2.93166 17.4356 2.93043 17.4345L2.53815 17.0793C2.53293 17.0746 2.52736 17.0702 2.52147 17.0663L1.89088 16.6396C1.89026 16.6389 1.88986 16.6381 1.88975 16.6372C1.88963 16.6363 1.8898 16.6354 1.89023 16.6346C1.89066 16.6338 1.89133 16.6332 1.89215 16.6328C1.89297 16.6324 1.8939 16.6322 1.8948 16.6324L2.6931 16.8585C2.70422 16.8614 2.71552 16.8636 2.72693 16.8652L3.01771 16.8974C3.01898 16.8974 3.02025 16.8971 3.02134 16.8964C3.02243 16.8958 3.02329 16.8948 3.02382 16.8937C3.02435 16.8926 3.02452 16.8913 3.0243 16.8901C3.02409 16.8888 3.0235 16.8877 3.02261 16.8868C2.67799 16.5866 2.31029 16.3128 1.92275 16.0678C1.92178 16.0675 1.921 16.0667 1.92058 16.0658C1.92017 16.0648 1.92016 16.0638 1.92055 16.0628C1.92094 16.0618 1.9217 16.0611 1.92266 16.0607C1.92363 16.0603 1.92472 16.0603 1.9257 16.0606C2.06986 16.1086 2.63278 16.3007 3.01281 16.3453C3.01449 16.3454 3.01617 16.345 3.01762 16.3441C3.01906 16.3433 3.0202 16.342 3.0209 16.3405C3.02159 16.339 3.02179 16.3373 3.02149 16.3357C3.02118 16.3341 3.02038 16.3326 3.01918 16.3314L2.26404 15.62C2.26354 15.6193 2.26326 15.6184 2.26325 15.6176C2.26323 15.6167 2.26347 15.6159 2.26395 15.6152C2.26442 15.6144 2.2651 15.6139 2.2659 15.6135C2.2667 15.6132 2.26759 15.6131 2.26845 15.6132L3.03438 15.8494C3.04652 15.8532 3.059 15.8557 3.07165 15.8571L3.25455 15.8725C3.25673 15.8726 3.25892 15.8723 3.2609 15.8714C3.26289 15.8705 3.2646 15.8691 3.26588 15.8673C3.26716 15.8656 3.26796 15.8636 3.26821 15.8614C3.26846 15.8593 3.26815 15.8572 3.2673 15.8552L3.24474 15.8072C3.23677 15.7887 3.22451 15.7723 3.20895 15.7592L2.48862 15.1692C2.48804 15.1686 2.48767 15.1678 2.48754 15.167C2.48741 15.1661 2.48754 15.1653 2.48791 15.1645C2.48827 15.1637 2.48886 15.1631 2.4896 15.1626C2.49033 15.1622 2.49119 15.162 2.49205 15.162L3.42862 15.3833C3.43074 15.3838 3.43296 15.3837 3.43498 15.3828C3.43699 15.382 3.43869 15.3806 3.43984 15.3788C3.44098 15.377 3.44151 15.3749 3.44134 15.3728C3.44118 15.3706 3.44033 15.3686 3.43892 15.367L2.77695 14.6364C2.77637 14.6356 2.77606 14.6347 2.77604 14.6338C2.77603 14.6329 2.77631 14.632 2.77686 14.6312C2.77741 14.6305 2.77819 14.6299 2.77909 14.6296C2.77999 14.6294 2.78095 14.6294 2.78185 14.6297L3.65468 14.9369C3.65647 14.9375 3.6584 14.9375 3.6602 14.9369C3.66199 14.9363 3.66355 14.9352 3.66465 14.9337C3.66575 14.9322 3.66632 14.9304 3.66629 14.9285C3.66626 14.9267 3.66563 14.9249 3.66448 14.9234L3.09175 14.2274C3.09118 14.2266 3.09086 14.2257 3.09085 14.2248C3.09083 14.2239 3.09112 14.223 3.09167 14.2222C3.09222 14.2215 3.093 14.2209 3.09389 14.2206C3.09479 14.2204 3.09576 14.2204 3.09666 14.2207L3.83218 14.4996C3.85041 14.5063 3.86961 14.5102 3.88906 14.5111L3.96752 14.514C3.96907 14.5142 3.97065 14.5139 3.97202 14.5131C3.9734 14.5124 3.97449 14.5112 3.97515 14.5098C3.97581 14.5084 3.97599 14.5069 3.97568 14.5054C3.97536 14.5039 3.97457 14.5025 3.9734 14.5015L3.30849 13.7862C3.30791 13.7855 3.3076 13.7846 3.30758 13.7837C3.30757 13.7827 3.30785 13.7818 3.3084 13.7811C3.30895 13.7803 3.30973 13.7798 3.31063 13.7795C3.31153 13.7792 3.3125 13.7792 3.31339 13.7795L3.89397 14.0022C3.95827 14.0266 4.02551 14.0427 4.09403 14.0502L4.35343 14.0786C4.35533 14.0788 4.35726 14.0784 4.35895 14.0775C4.36065 14.0767 4.36201 14.0753 4.36287 14.0736C4.36373 14.0719 4.36404 14.07 4.36375 14.0681C4.36347 14.0663 4.3626 14.0646 4.36127 14.0632L3.69292 13.3878C3.69235 13.3871 3.69203 13.3862 3.69202 13.3852C3.692 13.3843 3.69229 13.3834 3.69284 13.3827C3.69339 13.3819 3.69417 13.3813 3.69507 13.3811C3.69596 13.3808 3.69693 13.3808 3.69783 13.3811L4.49318 13.7939C4.54595 13.8211 4.60195 13.8419 4.6599 13.8558L7.02143 14.418C7.03984 14.4222 7.05851 14.4252 7.07733 14.4271L8.01929 14.5207C8.02072 14.5207 8.0221 14.5212 8.02311 14.5222C8.02412 14.5232 8.02469 14.5246 8.02469 14.526C8.02469 14.5274 8.02412 14.5287 8.02311 14.5297C8.0221 14.5307 8.02072 14.5312 8.01929 14.5312L6.81548 14.562C6.80617 14.5624 6.79684 14.5624 6.78753 14.562L4.80308 14.418C4.80107 14.418 4.79913 14.4186 4.79754 14.4198C4.79595 14.421 4.79479 14.4227 4.79424 14.4246C4.79369 14.4265 4.79378 14.4285 4.79448 14.4303C4.79519 14.4321 4.79649 14.4337 4.79817 14.4348C4.89036 14.4799 5.18604 14.6023 5.98826 14.7933C5.99288 14.7948 5.99764 14.7958 6.00248 14.7962ZM4.70942 13.5616C4.71033 13.5528 4.71311 13.5443 4.71758 13.5367C4.72205 13.529 4.72811 13.5224 4.73537 13.5172C4.74263 13.512 4.75092 13.5083 4.75971 13.5065C4.7685 13.5046 4.7776 13.5046 4.78641 13.5064L6.92483 13.9509C6.92756 13.9513 6.93 13.9528 6.93161 13.955C6.93322 13.9572 6.93387 13.96 6.93341 13.9626C6.93296 13.9653 6.93143 13.9677 6.92918 13.9693C6.92693 13.9708 6.92413 13.9715 6.9214 13.971C5.55135 13.875 4.94675 13.6979 4.75306 13.6273C4.7394 13.6226 4.72771 13.6136 4.71982 13.6017C4.71193 13.5898 4.70827 13.5757 4.70942 13.5616ZM14.31 13.1867C13.5205 13.3369 8.67097 13.4459 6.44036 13.0556C6.44036 13.0556 3.77628 12.6072 3.26877 12.0432C3.26053 12.0335 3.25606 12.0212 3.25615 12.0085C3.25624 11.9959 3.26087 11.9837 3.26925 11.9741C3.27762 11.9644 3.28919 11.958 3.30193 11.9559C3.31466 11.9538 3.32775 11.9562 3.33889 11.9626C3.94987 12.3317 6.55854 13.5251 14.3002 13.1334C14.3335 13.1314 14.3448 13.1804 14.31 13.1867ZM18.6599 20.8231C18.6585 20.8239 18.6569 20.8243 18.6553 20.8241C18.6537 20.824 18.6522 20.8233 18.651 20.8222C18.6498 20.8211 18.6491 20.8196 18.6488 20.8181C18.6486 20.8165 18.6488 20.8149 18.6496 20.8135C19.6553 19.696 19.9569 18.7273 20.0452 18.3173C20.0459 18.3109 20.0491 18.3051 20.0543 18.3011C20.0594 18.2971 20.0659 18.2952 20.0724 18.2959C20.0789 18.2966 20.0848 18.2998 20.0889 18.3048C20.093 18.3098 20.0949 18.3162 20.0942 18.3226C20.0854 19.3724 19.0311 20.4703 18.6599 20.8231ZM20.284 17.0534C20.2835 17.0634 20.2792 17.0728 20.2719 17.0799C20.2647 17.087 20.255 17.0911 20.2448 17.0916C20.2346 17.0921 20.2246 17.0888 20.2167 17.0825C20.2088 17.0761 20.2036 17.0671 20.2021 17.0572C19.8912 15.4731 18.9713 13.9725 18.9713 13.9725C20.2183 15.6046 20.3188 16.6266 20.2849 17.0534H20.284ZM21.0028 12.8847C20.7941 13.041 20.6379 13.2548 20.5541 13.4987C20.2035 12.8405 20.129 12.4388 20.1128 12.2799C20.7797 11.9592 20.9793 11.7557 21.0175 11.7115C21.0183 11.7108 21.0192 11.7103 21.0202 11.7101C21.0212 11.7098 21.0223 11.7098 21.0233 11.7101C21.0243 11.7104 21.0252 11.711 21.0259 11.7117C21.0266 11.7125 21.0271 11.7134 21.0273 11.7144L21.0572 11.8665C21.0711 11.9428 21.1087 12.0131 21.1647 12.0678C21.2208 12.1225 21.2926 12.159 21.3706 12.1723C21.4249 12.1808 21.4805 12.1775 21.5334 12.1628C21.5863 12.1481 21.6353 12.1223 21.677 12.0871C21.7186 12.052 21.752 12.0084 21.7747 11.9594C21.7974 11.9103 21.8089 11.857 21.8085 11.8032C21.8075 11.582 21.7899 11.3613 21.756 11.1427C21.7547 11.1329 21.7561 11.1229 21.7603 11.1139C21.7644 11.1049 21.771 11.0972 21.7794 11.0917C21.7878 11.0862 21.7976 11.0831 21.8076 11.0828C21.8177 11.0825 21.8277 11.0849 21.8364 11.0898C22.9583 11.7312 21.6893 12.4416 21.6893 12.4416C21.4481 12.5696 21.2188 12.7179 21.0038 12.8847H21.0028Z" fill="#2E2413"></path>
</svg></svg></g></g><defs><clipPath id="SvgjsClipPath1064"><rect width="1000" height="1000" x="0" y="0" rx="250" ry="250"></rect></clipPath></defs></svg>